<?xml version="1.0" encoding="UTF-8" standalone="no"?>
<!-- Created with Inkscape (http://www.inkscape.org/) -->

<svg
   version="1.1"
   id="svg1"
   width="1024"
   height="1024"
   viewBox="0 0 1024 1024"
   sodipodi:docname="학보사로고.jpeg"
   xmlns:inkscape="http://www.inkscape.org/namespaces/inkscape"
   xmlns:sodipodi="http://sodipodi.sourceforge.net/DTD/sodipodi-0.dtd"
   xmlns="http://www.w3.org/2000/svg"
   xmlns:svg="http://www.w3.org/2000/svg">
  <defs
     id="defs1" />
  <sodipodi:namedview
     id="namedview1"
     pagecolor="#505050"
     bordercolor="#eeeeee"
     borderopacity="1"
     inkscape:showpageshadow="0"
     inkscape:pageopacity="0"
     inkscape:pagecheckerboard="0"
     inkscape:deskcolor="#505050"
     showgrid="false" />
  <g
     inkscape:groupmode="layer"
     inkscape:label="Image"
     id="g1">
    <path
       style="fill:#000000"
       d="M 476.5,901.44728 C 398.93865,892.2496 328.51833,862.44406 270.1879,814.12529 191.32111,748.79495 142.57398,658.82316 129.79262,555 c -1.74613,-14.18385 -1.73932,-71.89975 0.0102,-86 9.58696,-77.26835 36.98121,-143.28711 83.81919,-202 12.67808,-15.89238 42.48391,-46.09949 57.37804,-58.15053 37.72913,-30.52715 78.95896,-53.30039 125,-69.04355 49.46222,-16.91301 114.93345,-23.65229 168,-17.2931 75.28612,9.02185 141.01767,36.44247 201,83.84929 16.11635,12.7375 47.78223,44.49935 60.95315,61.13789 47.64114,60.18403 75.65301,129.02453 83.61994,205.5 2.09755,20.1347 1.53633,69.18195 -1.00694,88 -16.93201,125.28217 -88.66962,231.44399 -198.0662,293.11076 -42.21038,23.79396 -86.64919,38.51212 -140.5,46.53369 -15.01471,2.23658 -76.92675,2.76818 -93.5,0.80283 z m 65.11724,-0.44553 C 595.03942,897.75222 641.83964,885.59216 689.5,862.5775 752.13871,832.32997 805.26477,785.91496 844.68036,727 889.97996,659.29014 912.76454,576.83703 908.92243,494.52 906.2928,438.18023 893.6505,389.0614 868.89438,339 838.71506,277.97189 794.27224,227.06478 738,189.06681 684.68666,153.06685 628.89917,132.43405 563,124.34371 c -22.31389,-2.73944 -68.87739,-2.49254 -91,0.48253 -57.16208,7.68721 -107.36231,25.00284 -153.38379,52.9069 C 221.41012,236.67178 154.53624,334.12048 135.54826,444.5 c -4.51104,26.2232 -5.04986,33.53307 -5.01235,68 0.0308,28.26891 0.35073,35.31819 2.23184,49.16969 9.85605,72.57462 37.68714,137.93678 82.55853,193.89121 78.96768,98.47236 201.38485,153.03856 326.29096,145.44085 z M 491.5,888.38345 C 358.41597,878.13368 240.96682,799.05112 181.45309,679.61816 161.35952,639.29411 149.14789,597.16762 143.87938,550 142.19834,534.95012 142.18406,489.97027 143.85525,474.0099 154.8641,368.87213 208.57771,273.59105 292.5,210.33311 343.27774,172.05848 405.6957,146.24225 466,138.57307 c 50.38895,-6.4082 104.31112,-3.53238 148.2672,7.90752 51.99163,13.53121 101.35386,38.4161 142.74395,71.96124 C 848.74639,292.78987 900.02102,404.42478 896.66701,522.5 895.07239,578.63765 882.15223,630.40793 857.36021,680 820.18681,754.35886 762.19548,812.38715 687.87109,849.59716 649.68568,868.71443 611.29801,880.3587 566,886.56474 c -11.01896,1.50965 -62.2683,2.76076 -74.5,1.81871 z m 73.5,-3.79639 c 59.95199,-7.86783 114.25323,-27.93429 162,-59.8654 C 849.9345,742.50803 913.42032,598.14481 890.47,453 881.70487,397.56663 859.51736,342.66878 827.37588,296.88822 805.10564,265.16772 773.83817,232.94258 743.83375,210.78737 703.14553,180.74325 658.36266,159.555 610.3811,147.64652 c -13.7557,-3.41401 -32.35389,-7.07734 -32.82031,-6.4647 -0.13323,0.175 -1.6973,7.29318 -3.4757,15.81818 -1.7784,8.525 -3.4554,16.2875 -3.72666,17.25 -0.42729,1.51611 -1.82074,1.75 -10.42582,1.75 -7.33074,0 -9.93261,0.33064 -9.93261,1.26223 0,0.69422 6.3,18.9143 14,40.48905 7.7,21.57475 14,39.68325 14,40.24111 0,0.55786 -5.02256,5.85029 -11.16125,11.76095 -13.03017,12.54616 -21.34851,23.28591 -26.86794,34.68904 -4.2706,8.82304 -7.97081,21.63208 -7.97081,27.59258 0,2.04327 -0.28125,5.12129 -0.625,6.84004 -0.57097,2.85484 -0.96,3.125 -4.5,3.125 L 523,342 v -48.53518 c 0,-39.9309 0.24871,-48.92783 1.40294,-50.75 2.98263,-4.70866 -2.44877,-9.38186 -7.97668,-6.86317 -2.82306,1.28627 -3.37692,6.11449 -0.93398,8.14194 1.29149,1.07185 1.45968,7.715 1.25,49.37245 L 516.5,341.5 l -4.14326,0.30228 -4.14326,0.30228 -0.72285,-7.30228 c -1.55466,-15.70507 -8.12223,-31.96256 -18.22976,-45.1263 -6.05893,-7.89096 -17.8283,-20.16583 -23.65977,-24.67598 -2.48896,-1.925 -4.54242,-4.10949 -4.56324,-4.85442 C 461.01704,259.40065 467.3,241.2236 475,219.75215 482.7,198.2807 489,180.10269 489,179.35658 489,178.30491 486.75234,178 479,178 c -5.5,0 -10,-0.32948 -10,-0.73219 0,-1.19593 -7.21757,-35.73762 -7.54464,-36.10696 -0.45797,-0.51717 -21.6922,3.64771 -32.95536,6.46385 -42.95421,10.73989 -83.65612,29.04618 -120.5,54.19667 -19.99744,13.65071 -35.28854,26.39966 -53.54658,44.64443 -25.38666,25.36821 -44.86366,50.82428 -62.00106,81.0342 -51.27599,90.38966 -62.35602,200.02982 -30.26693,299.5 24.68278,76.51198 73.42433,143.14949 139.1374,190.22313 53.12378,38.05528 114.93531,61.3571 181.17717,68.30049 17.62775,1.84772 65.41809,1.30519 82.5,-0.93656 z M 462.00003,689.97544 c -3e-5,-2.3684 0.46278,-2.59819 7.48193,-3.71499 9.18153,-1.46084 12.95296,-3.32228 15.25111,-7.52738 1.64589,-3.0116 1.78823,-9.46676 2.07787,-94.23307 0.22115,-64.72095 -0.0139,-92.50594 -0.81384,-96.21483 -1.77394,-8.22447 -8.10947,-12.26652 -19.2471,-12.27959 -4.69104,-0.006 -4.75001,-0.0459 -4.75062,-3.25558 l -6.1e-4,-3.25 26.25061,0.24802 c 74.83298,0.70703 80.01758,0.86786 86.75062,2.691 29.39272,7.95882 44.83413,31.42767 38.46256,58.45787 -4.42305,18.76394 -18.87793,33.49593 -40.44326,41.21856 -6.17909,2.21276 -6.34198,2.35324 -3.5,3.0186 1.63939,0.38381 7.7901,1.81863 13.66825,3.18849 18.04072,4.20425 31.43688,12.44485 39.33219,24.19507 5.62004,8.36405 7.68473,15.14474 8.21604,26.98239 0.81803,18.22593 -3.90901,30.77791 -16.19598,43.00614 -8.1403,8.10137 -16.81371,13.04806 -30.07703,17.15375 l -8.96277,2.77445 -56.74997,0.0328 -56.74996,0.0328 z M 563.5,683.54487 C 586.18023,677.47499 597.83955,661.79509 599.59715,635 601.09079,612.22904 592.49023,593.88322 576.73437,586.23148 566.40863,581.21684 558.56219,580 536.55259,580 H 517 v 45.05718 c 0,29.31417 0.38237,46.57573 1.09437,49.40332 1.28184,5.09063 5.38077,9.40899 10.07495,10.61431 5.10891,1.31179 28.49673,0.29902 35.33068,-1.52994 z m -4.29837,-112.40864 c 6.62495,-2.60708 14.78297,-9.54744 18.32307,-15.58817 4.15566,-7.09109 6.59215,-18.59934 6.67926,-31.54806 0.12254,-18.21491 -3.07969,-29.06289 -11.02141,-37.3364 -7.69954,-8.02121 -17.90842,-11.10843 -34.74456,-10.50695 -12.54033,0.44801 -16.03132,1.86489 -19.07328,7.7412 -1.7207,3.32396 -1.88785,6.94967 -2.1643,46.94836 l -0.29958,43.34621 18.29958,-0.40622 c 16.00737,-0.35534 19.01378,-0.68728 24.00122,-2.64997 z M 666,649.50811 c -3.575,-0.79653 -11.225,-3.8242 -17,-6.72817 L 638.5,637.5 l -0.5,-8.83915 -0.5,-8.83916 2.45659,3.33916 c 4.57421,6.21755 12.85679,13.71089 18.08132,16.35836 10.30232,5.22058 26.1308,6.8902 37.42713,3.94788 12.33124,-3.21188 21.1688,-10.39135 26.42489,-21.46709 2.39753,-5.05212 2.61007,-6.55862 2.61007,-18.5 0,-12.59875 -0.10056,-13.21233 -3.25786,-19.87907 -4.68186,-9.8859 -15.25644,-20.08578 -32.24214,-31.09967 -45.74761,-29.66375 -54.24557,-36.44405 -62.23335,-49.65444 -5.8807,-9.72562 -7.86357,-17.37621 -7.91386,-30.53429 -0.0674,-17.63771 3.90575,-28.27645 14.52648,-38.89673 11.92057,-11.92006 27.69282,-17.03095 49.988,-16.19826 15.01741,0.56088 18.24093,1.54551 31.92281,9.75083 10.57684,6.34316 14.83517,7.2763 17.14159,3.75626 0.89558,-1.36682 1.96235,-4.45602 2.37061,-6.86488 0.71256,-4.20431 0.89586,-4.39243 4.57593,-4.69643 l 3.83364,-0.31668 -0.57976,5.81668 c -0.31887,3.19917 -0.87175,17.85418 -1.22863,32.56668 L 740.7546,484 h -3.26208 c -3.2156,0 -3.27216,-0.0807 -3.96989,-5.66518 -2.97155,-23.78348 -14.43515,-43.29352 -30.02263,-51.09587 -10.463,-5.23728 -29.46673,-5.73114 -39.67515,-1.03105 -15.55214,7.16041 -23.68755,22.83231 -20.957,40.37117 2.40507,15.44822 11.10206,25.47897 35.0463,40.42093 24.08786,15.03158 40.97522,26.33241 49.08585,32.84769 19.5653,15.71684 27.98538,32.99044 26.64341,54.65835 -1.67364,27.02306 -16.07435,44.89098 -43.14341,53.53089 -9.09609,2.9033 -34.32827,3.73748 -44.5,1.47118 z m -395.71189,-6.1997 c -1.29794,-3.38236 0.24507,-4.80413 5.99298,-5.52212 12.77954,-1.59633 16.28991,-3.76239 18.88353,-11.65201 0.87417,-2.65917 1.29879,-25.89853 1.58258,-86.61388 0.39881,-85.32655 -0.14949,-103.43304 -3.27669,-108.20574 -2.26534,-3.45736 -7.20262,-6.16854 -12.43794,-6.82998 -11.22023,-1.41759 -11.17828,-1.40147 -10.84352,-4.16604 l 0.31095,-2.56787 40.75008,-0.12538 40.75008,-0.12539 -8e-5,2.73095 c -9e-5,2.9593 -0.48505,3.17739 -9.33242,4.19665 -7.69716,0.88675 -11.63144,3.26659 -14.05262,8.50038 -2.03674,4.40277 -2.12699,6.22859 -2.43779,49.32202 L 325.85449,527 h 52.6287 52.6287 l -0.30594,-45.25 c -0.29365,-43.43114 -0.38888,-45.41078 -2.36898,-49.25 -2.27604,-4.413 -6.93981,-7.29361 -13.1252,-8.10686 C 404.86919,423.02015 405,423.07328 405,420.20469 V 417.5 h 41 41 v 2.70469 c 0,2.89518 0.0346,2.88174 -11.03257,4.27999 -2.49292,0.31496 -5.95857,1.43985 -7.70146,2.49977 -5.42994,3.30214 -6.60782,6.92427 -7.07793,21.76555 L 460.76834,462 H 457.88417 455 v 9.93358 9.93358 l 2.75,0.31642 2.75,0.31642 0.5,72 c 0.45331,65.27677 0.65864,72.28961 2.19889,75.1015 2.04875,3.74021 5.1404,5.89522 9.81578,6.84201 6.64657,1.34597 6.98533,1.57021 6.98533,4.62388 V 644 l -36,0.15 c -19.8,0.0825 -36.5625,0.195 -37.25,0.25 -0.69532,0.0556 -1.3841,-1.27583 -1.55221,-3.00052 l -0.30221,-3.10052 6.66859,-0.62272 c 7.56073,-0.70603 12.96744,-3.01734 15.61736,-6.67624 3.34613,-4.62021 3.84801,-12.40661 3.57961,-55.53612 L 430.5,533.5 h -52 -52 V 579 c 0,43.52151 0.087,45.67113 2,49.43547 2.95422,5.8131 6.1731,7.67385 15.41552,8.91129 L 352,638.42916 v 3.03542 3.03542 h -40.62732 c -30.51717,0 -40.74111,-0.29653 -41.08457,-1.19159 z m 353.41542,-50.80677 -5.79647,-6.4331 0.29647,-6.78427 L 618.5,572.5 l 3.19359,-0.30915 c 3.00397,-0.2908 3.22788,-0.083 3.77106,3.5 0.31761,2.09503 1.37025,8.19665 2.33921,13.55915 0.96896,5.3625 1.74699,9.73532 1.72894,9.71737 -0.018,-0.0179 -2.64121,-2.92752 -5.82927,-6.46573 z m -419.51497,-75.5406 c -2.56734,-2.39184 -2.83951,-6.58667 -0.63186,-9.73853 1.14283,-1.63161 2.5639,-2.22251 5.34502,-2.22251 4.60407,0 7.09828,2.39949 7.09828,6.82874 0,6.3248 -7.18182,9.44545 -11.81144,5.1323 z M 825,517 c -2.55355,-2.55355 -2.64547,-8.10588 -0.17126,-10.34501 4.3493,-3.93606 12.17126,-0.61307 12.17126,5.1707 0,5.97261 -7.82683,9.34748 -12,5.17431 z"
       id="path1" />
  </g>
</svg>
